<svg xmlns="http://www.w3.org/2000/svg" version="1.1" xmlns:xlink="http://www.w3.org/1999/xlink" xmlns:svgjs="http://svgjs.dev/svgjs" width="1000" height="1000" viewBox="0 0 1000 1000"><rect width="1000" height="1000" fill="#6230a3"></rect><g transform="matrix(0.7,0,0,0.7,149.57575757575756,282.1265587044535)"><svg viewBox="0 0 396 247" data-background-color="#6230a3" preserveAspectRatio="xMidYMid meet" height="623" width="1000" xmlns="http://www.w3.org/2000/svg" xmlns:xlink="http://www.w3.org/1999/xlink"><g id="tight-bounds" transform="matrix(1,0,0,1,0.2400000000000091,-0.09999999999999432)"><svg viewBox="0 0 395.52 247.2" height="247.2" width="395.52"><g><svg></svg></g><g><svg viewBox="0 0 395.52 247.2" height="247.2" width="395.52"><mask id="934ae23f-e603-43b7-b76d-8ba59468b152"><rect width="640" height="400" fill="white"></rect><g transform="matrix(1,0,0,1,39.55199999999999,104.27793157210914)"><svg viewBox="0 0 316.416 38.644136855781724" height="38.644136855781724" width="316.416"><g><svg viewBox="0 0 316.416 38.644136855781724" height="38.644136855781724" width="316.416"><g><svg viewBox="0 0 316.416 38.644136855781724" height="38.644136855781724" width="316.416"><g><svg viewBox="0 0 316.416 38.644136855781724" height="38.644136855781724" width="316.416"><g id="SvgjsG1020"><svg viewBox="0 0 316.416 38.644136855781724" height="38.644136855781724" width="316.416" id="SvgjsSvg1019"><g><svg viewBox="0 0 316.416 38.644136855781724" height="38.644136855781724" width="316.416"><g transform="matrix(1,0,0,1,0,0)"><svg width="316.416" viewBox="-3.05 -39.2 347.32 43.300000000000004" height="38.644136855781724" data-palette-color="#fec200"><path d="M25.7-35.2L25.7-35.2Q26.55-35.2 27.13-34.58 27.7-33.95 27.7-33.15L27.7-33.15Q27.7-32.85 27.63-32.52 27.55-32.2 27.35-31.9L27.35-31.9 15.75-15.75 16.4-18.2 16.4-2.05Q16.4-1.2 15.83-0.6 15.25 0 14.45 0L14.45 0Q13.55 0 12.98-0.6 12.4-1.2 12.4-2.05L12.4-2.05 12.4-17.8 12.75-16.5 1.5-31.7Q1.2-32.1 1.07-32.48 0.95-32.85 0.95-33.2L0.95-33.2Q0.95-34.05 1.65-34.63 2.35-35.2 3.05-35.2L3.05-35.2Q4.05-35.2 4.7-34.25L4.7-34.25 15.05-20.05 14.1-20.2 24.05-34.2Q24.7-35.2 25.7-35.2ZM41.85-29.85L42.95-29.8 31.2-1.2Q31-0.6 30.5-0.25 30 0.1 29.45 0.1L29.45 0.1Q28.5 0.1 28.05-0.4 27.6-0.9 27.6-1.6L27.6-1.6Q27.55-1.95 27.7-2.35L27.7-2.35 40.65-33.85Q40.9-34.55 41.42-34.88 41.95-35.2 42.6-35.15L42.6-35.15Q43.25-35.15 43.77-34.8 44.3-34.45 44.5-33.85L44.5-33.85 57.4-2.65Q57.55-2.25 57.55-1.85L57.55-1.85Q57.55-0.95 56.95-0.43 56.35 0.1 55.6 0.1L55.6 0.1Q55 0.1 54.5-0.25 54-0.6 53.75-1.25L53.75-1.25 41.85-29.85ZM51-9.35L33.7-9.35 35.4-13.25 50.25-13.25 51-9.35ZM65.05-35L76.75-35Q79.5-35 81.7-33.65 83.9-32.3 85.17-29.95 86.45-27.6 86.45-24.6L86.45-24.6Q86.45-21.65 85.17-19.25 83.9-16.85 81.7-15.45 79.5-14.05 76.75-14.05L76.75-14.05 66.6-14.05 66.95-14.65 66.95-2.05Q66.95-1.2 66.4-0.6 65.85 0 65 0L65 0Q64.1 0 63.57-0.6 63.05-1.2 63.05-2.05L63.05-2.05 63.05-33Q63.05-33.85 63.62-34.43 64.2-35 65.05-35L65.05-35ZM66.6-17.9L76.75-17.9Q78.4-17.9 79.65-18.8 80.9-19.7 81.65-21.25 82.4-22.8 82.4-24.6L82.4-24.6Q82.4-26.5 81.65-27.95 80.9-29.4 79.65-30.28 78.4-31.15 76.75-31.15L76.75-31.15 66.6-31.15 66.95-31.7 66.95-17.4 66.6-17.9ZM101.99-29.85L103.09-29.8 91.34-1.2Q91.14-0.6 90.64-0.25 90.14 0.1 89.59 0.1L89.59 0.1Q88.64 0.1 88.19-0.4 87.74-0.9 87.74-1.6L87.74-1.6Q87.69-1.95 87.84-2.35L87.84-2.35 100.79-33.85Q101.04-34.55 101.57-34.88 102.09-35.2 102.74-35.15L102.74-35.15Q103.39-35.15 103.92-34.8 104.44-34.45 104.64-33.85L104.64-33.85 117.54-2.65Q117.69-2.25 117.69-1.85L117.69-1.85Q117.69-0.95 117.09-0.43 116.49 0.1 115.74 0.1L115.74 0.1Q115.14 0.1 114.64-0.25 114.14-0.6 113.89-1.25L113.89-1.25 101.99-29.85ZM111.14-9.35L93.84-9.35 95.54-13.25 110.39-13.25 111.14-9.35ZM142.34-35.2L142.34-35.2Q143.19-35.2 143.77-34.58 144.34-33.95 144.34-33.15L144.34-33.15Q144.34-32.85 144.27-32.52 144.19-32.2 143.99-31.9L143.99-31.9 132.39-15.75 133.04-18.2 133.04-2.05Q133.04-1.2 132.47-0.6 131.89 0 131.09 0L131.09 0Q130.19 0 129.62-0.6 129.04-1.2 129.04-2.05L129.04-2.05 129.04-17.8 129.39-16.5 118.14-31.7Q117.84-32.1 117.72-32.48 117.59-32.85 117.59-33.2L117.59-33.2Q117.59-34.05 118.29-34.63 118.99-35.2 119.69-35.2L119.69-35.2Q120.69-35.2 121.34-34.25L121.34-34.25 131.69-20.05 130.74-20.2 140.69-34.2Q141.34-35.2 142.34-35.2ZM174.24 0L174.24 0Q173.34 0 172.74-0.6 172.14-1.2 172.14-2.05L172.14-2.05 172.14-32.95 176.39-32.95 176.39-2.05Q176.39-1.2 175.79-0.6 175.19 0 174.24 0ZM185.89-31.2L162.64-31.2Q161.79-31.2 161.21-31.73 160.64-32.25 160.64-33.1L160.64-33.1Q160.64-33.95 161.21-34.48 161.79-35 162.64-35L162.64-35 185.89-35Q186.74-35 187.34-34.48 187.94-33.95 187.94-33.1L187.94-33.1Q187.94-32.2 187.34-31.7 186.74-31.2 185.89-31.2L185.89-31.2ZM202.43-29.85L203.53-29.8 191.78-1.2Q191.58-0.6 191.08-0.25 190.58 0.1 190.03 0.1L190.03 0.1Q189.08 0.1 188.63-0.4 188.18-0.9 188.18-1.6L188.18-1.6Q188.13-1.95 188.28-2.35L188.28-2.35 201.23-33.85Q201.48-34.55 202.01-34.88 202.53-35.2 203.18-35.15L203.18-35.15Q203.83-35.15 204.36-34.8 204.88-34.45 205.08-33.85L205.08-33.85 217.98-2.65Q218.13-2.25 218.13-1.85L218.13-1.85Q218.13-0.95 217.53-0.43 216.93 0.1 216.18 0.1L216.18 0.1Q215.58 0.1 215.08-0.25 214.58-0.6 214.33-1.25L214.33-1.25 202.43-29.85ZM211.58-9.35L194.28-9.35 195.98-13.25 210.83-13.25 211.58-9.35ZM226.78-3.95L242.93-3.95Q243.78-3.95 244.38-3.38 244.98-2.8 244.98-1.95L244.98-1.95Q244.98-1.1 244.38-0.55 243.78 0 242.93 0L242.93 0 225.63 0Q224.78 0 224.21-0.6 223.63-1.2 223.63-2.05L223.63-2.05 223.63-33Q223.63-33.85 224.23-34.43 224.83-35 225.73-35L225.73-35Q226.58-35 227.18-34.43 227.78-33.85 227.78-33L227.78-33 227.78-3.05 226.78-3.95ZM252.73-35L252.73-35 270.53-35Q271.38-35 271.98-34.45 272.58-33.9 272.58-33.05L272.58-33.05Q272.58-32.2 271.98-31.68 271.38-31.15 270.53-31.15L270.53-31.15 254.43-31.15 254.88-32 254.88-19.35 254.38-19.9 268.28-19.9Q269.13-19.9 269.73-19.35 270.33-18.8 270.33-17.95L270.33-17.95Q270.33-17.1 269.73-16.57 269.13-16.05 268.28-16.05L268.28-16.05 254.53-16.05 254.88-16.5 254.88-3.55 254.58-3.9 270.53-3.9Q271.38-3.9 271.98-3.3 272.58-2.7 272.58-1.95L272.58-1.95Q272.58-1.1 271.98-0.55 271.38 0 270.53 0L270.53 0 252.73 0Q251.88 0 251.3-0.6 250.73-1.2 250.73-2.05L250.73-2.05 250.73-33Q250.73-33.85 251.3-34.43 251.88-35 252.73-35ZM305.13-35L305.13-35Q305.97-35 306.47-34.48 306.97-33.95 306.97-33.15L306.97-33.15 306.97-2.1Q306.97-1.15 306.38-0.58 305.77 0 304.93 0L304.93 0Q304.47 0 304.02-0.18 303.57-0.35 303.32-0.65L303.32-0.65 281.93-28.95 282.93-29.55 282.93-1.85Q282.93-1.05 282.4-0.53 281.88 0 281.02 0L281.02 0Q280.22 0 279.72-0.53 279.22-1.05 279.22-1.85L279.22-1.85 279.22-33Q279.22-33.9 279.8-34.45 280.38-35 281.18-35L281.18-35Q281.63-35 282.1-34.83 282.57-34.65 282.82-34.3L282.82-34.3 303.93-6.4 303.27-5.6 303.27-33.15Q303.27-33.95 303.8-34.48 304.32-35 305.13-35ZM326.57 0L326.57 0Q325.67 0 325.07-0.6 324.47-1.2 324.47-2.05L324.47-2.05 324.47-32.95 328.72-32.95 328.72-2.05Q328.72-1.2 328.12-0.6 327.52 0 326.57 0ZM338.22-31.2L314.97-31.2Q314.12-31.2 313.55-31.73 312.97-32.25 312.97-33.1L312.97-33.1Q312.97-33.95 313.55-34.48 314.12-35 314.97-35L314.97-35 338.22-35Q339.07-35 339.67-34.48 340.27-33.95 340.27-33.1L340.27-33.1Q340.27-32.2 339.67-31.7 339.07-31.2 338.22-31.2L338.22-31.2Z" opacity="1" transform="matrix(1,0,0,1,0,0)" fill="black" class="wordmark-text-0" id="SvgjsPath1018" stroke-width="7" stroke="black" stroke-linejoin="round"></path></svg></g></svg></g></svg></g></svg></g><g></g></svg></g></svg></g></svg></g></mask><g transform="matrix(1,0,0,1,39.55199999999999,104.27793157210914)"><svg viewBox="0 0 316.416 38.644136855781724" height="38.644136855781724" width="316.416"><g><svg viewBox="0 0 316.416 38.644136855781724" height="38.644136855781724" width="316.416"><g><svg viewBox="0 0 316.416 38.644136855781724" height="38.644136855781724" width="316.416"><g><svg viewBox="0 0 316.416 38.644136855781724" height="38.644136855781724" width="316.416"><g id="textblocktransform"><svg viewBox="0 0 316.416 38.644136855781724" height="38.644136855781724" width="316.416" id="textblock"><g><svg viewBox="0 0 316.416 38.644136855781724" height="38.644136855781724" width="316.416"><g transform="matrix(1,0,0,1,0,0)"><svg width="316.416" viewBox="-3.05 -39.2 347.32 43.300000000000004" height="38.644136855781724" data-palette-color="#fec200"><path d="M25.7-35.2L25.7-35.2Q26.55-35.2 27.13-34.58 27.7-33.95 27.7-33.15L27.7-33.15Q27.7-32.85 27.63-32.52 27.55-32.2 27.35-31.9L27.35-31.9 15.75-15.75 16.4-18.2 16.4-2.05Q16.4-1.2 15.83-0.6 15.25 0 14.45 0L14.45 0Q13.55 0 12.98-0.6 12.4-1.2 12.4-2.05L12.4-2.05 12.4-17.8 12.75-16.5 1.5-31.7Q1.2-32.1 1.07-32.48 0.95-32.85 0.95-33.2L0.95-33.2Q0.95-34.05 1.65-34.63 2.35-35.2 3.05-35.2L3.05-35.2Q4.05-35.2 4.7-34.25L4.7-34.25 15.05-20.05 14.1-20.2 24.05-34.2Q24.7-35.2 25.7-35.2ZM41.85-29.85L42.95-29.8 31.2-1.2Q31-0.6 30.5-0.25 30 0.1 29.45 0.1L29.45 0.1Q28.5 0.1 28.05-0.4 27.6-0.9 27.6-1.6L27.6-1.6Q27.55-1.95 27.7-2.35L27.7-2.35 40.65-33.85Q40.9-34.55 41.42-34.88 41.95-35.2 42.6-35.15L42.6-35.15Q43.25-35.15 43.77-34.8 44.3-34.45 44.5-33.85L44.5-33.85 57.4-2.65Q57.55-2.25 57.55-1.85L57.55-1.85Q57.55-0.95 56.95-0.43 56.35 0.1 55.6 0.1L55.6 0.1Q55 0.1 54.5-0.25 54-0.6 53.75-1.25L53.75-1.25 41.85-29.85ZM51-9.35L33.7-9.35 35.4-13.25 50.25-13.25 51-9.35ZM65.05-35L76.75-35Q79.5-35 81.7-33.65 83.9-32.3 85.17-29.95 86.45-27.6 86.45-24.6L86.45-24.6Q86.45-21.65 85.17-19.25 83.9-16.85 81.7-15.45 79.5-14.05 76.75-14.05L76.75-14.05 66.6-14.05 66.95-14.65 66.95-2.05Q66.95-1.2 66.4-0.6 65.85 0 65 0L65 0Q64.1 0 63.57-0.6 63.05-1.2 63.05-2.05L63.05-2.05 63.05-33Q63.05-33.85 63.62-34.43 64.2-35 65.05-35L65.05-35ZM66.6-17.9L76.75-17.9Q78.4-17.9 79.65-18.8 80.9-19.7 81.65-21.25 82.4-22.8 82.4-24.6L82.4-24.6Q82.4-26.5 81.65-27.95 80.9-29.4 79.65-30.28 78.4-31.15 76.75-31.15L76.75-31.15 66.6-31.15 66.95-31.7 66.95-17.4 66.6-17.9ZM101.99-29.85L103.09-29.8 91.34-1.2Q91.14-0.6 90.64-0.25 90.14 0.1 89.59 0.1L89.59 0.1Q88.64 0.1 88.19-0.4 87.74-0.9 87.74-1.6L87.74-1.6Q87.69-1.95 87.84-2.35L87.84-2.35 100.79-33.85Q101.04-34.55 101.57-34.88 102.09-35.2 102.74-35.15L102.74-35.15Q103.39-35.15 103.92-34.8 104.44-34.45 104.64-33.85L104.64-33.85 117.54-2.65Q117.69-2.25 117.69-1.85L117.69-1.85Q117.69-0.95 117.09-0.43 116.49 0.1 115.74 0.1L115.74 0.1Q115.14 0.1 114.64-0.25 114.14-0.6 113.89-1.25L113.89-1.25 101.99-29.85ZM111.14-9.35L93.84-9.35 95.54-13.25 110.39-13.25 111.14-9.35ZM142.34-35.2L142.34-35.2Q143.19-35.2 143.77-34.58 144.34-33.95 144.34-33.15L144.34-33.15Q144.34-32.85 144.27-32.52 144.19-32.2 143.99-31.9L143.99-31.9 132.39-15.75 133.04-18.2 133.04-2.05Q133.04-1.2 132.47-0.6 131.89 0 131.09 0L131.09 0Q130.19 0 129.62-0.6 129.04-1.2 129.04-2.05L129.04-2.05 129.04-17.8 129.39-16.5 118.14-31.7Q117.84-32.1 117.72-32.48 117.59-32.85 117.59-33.2L117.59-33.2Q117.59-34.05 118.29-34.63 118.99-35.2 119.69-35.2L119.69-35.2Q120.69-35.2 121.34-34.25L121.34-34.25 131.69-20.05 130.74-20.2 140.69-34.2Q141.34-35.2 142.34-35.2ZM174.24 0L174.24 0Q173.34 0 172.74-0.6 172.14-1.2 172.14-2.05L172.14-2.05 172.14-32.95 176.39-32.95 176.39-2.05Q176.39-1.2 175.79-0.6 175.19 0 174.24 0ZM185.89-31.2L162.64-31.2Q161.79-31.2 161.21-31.73 160.64-32.25 160.64-33.1L160.64-33.1Q160.64-33.95 161.21-34.48 161.79-35 162.64-35L162.64-35 185.89-35Q186.74-35 187.34-34.48 187.94-33.95 187.94-33.1L187.94-33.1Q187.94-32.2 187.34-31.7 186.74-31.2 185.89-31.2L185.89-31.2ZM202.43-29.85L203.53-29.8 191.78-1.2Q191.58-0.6 191.08-0.25 190.58 0.1 190.03 0.1L190.03 0.1Q189.08 0.1 188.63-0.4 188.18-0.9 188.18-1.6L188.18-1.6Q188.13-1.95 188.28-2.35L188.28-2.35 201.23-33.85Q201.48-34.55 202.01-34.88 202.53-35.2 203.18-35.15L203.18-35.15Q203.83-35.15 204.36-34.8 204.88-34.45 205.08-33.85L205.08-33.85 217.98-2.65Q218.13-2.25 218.13-1.85L218.13-1.85Q218.13-0.95 217.53-0.43 216.93 0.1 216.18 0.1L216.18 0.1Q215.58 0.1 215.08-0.25 214.58-0.6 214.33-1.25L214.33-1.25 202.43-29.85ZM211.58-9.35L194.28-9.35 195.98-13.25 210.83-13.25 211.58-9.35ZM226.78-3.95L242.93-3.95Q243.78-3.95 244.38-3.38 244.98-2.8 244.98-1.95L244.98-1.95Q244.98-1.1 244.38-0.55 243.78 0 242.93 0L242.93 0 225.63 0Q224.78 0 224.21-0.6 223.63-1.2 223.63-2.05L223.63-2.05 223.63-33Q223.63-33.85 224.23-34.43 224.83-35 225.73-35L225.73-35Q226.58-35 227.18-34.43 227.78-33.85 227.78-33L227.78-33 227.78-3.05 226.78-3.95ZM252.73-35L252.73-35 270.53-35Q271.38-35 271.98-34.45 272.58-33.9 272.58-33.05L272.58-33.05Q272.58-32.2 271.98-31.68 271.38-31.15 270.53-31.15L270.53-31.15 254.43-31.15 254.88-32 254.88-19.35 254.38-19.9 268.28-19.9Q269.13-19.9 269.73-19.35 270.33-18.8 270.33-17.95L270.33-17.95Q270.33-17.1 269.73-16.57 269.13-16.05 268.28-16.05L268.28-16.05 254.53-16.05 254.88-16.5 254.88-3.55 254.58-3.9 270.53-3.9Q271.38-3.9 271.98-3.3 272.58-2.7 272.58-1.95L272.58-1.95Q272.58-1.1 271.98-0.55 271.38 0 270.53 0L270.53 0 252.73 0Q251.88 0 251.3-0.6 250.73-1.2 250.73-2.05L250.73-2.05 250.73-33Q250.73-33.85 251.3-34.43 251.88-35 252.73-35ZM305.13-35L305.13-35Q305.97-35 306.47-34.48 306.97-33.95 306.97-33.15L306.97-33.15 306.97-2.1Q306.97-1.15 306.38-0.58 305.77 0 304.93 0L304.93 0Q304.47 0 304.02-0.18 303.57-0.35 303.32-0.65L303.32-0.65 281.93-28.95 282.93-29.55 282.93-1.85Q282.93-1.05 282.4-0.53 281.88 0 281.02 0L281.02 0Q280.22 0 279.72-0.53 279.22-1.05 279.22-1.85L279.22-1.85 279.22-33Q279.22-33.9 279.8-34.45 280.38-35 281.18-35L281.18-35Q281.63-35 282.1-34.83 282.57-34.65 282.82-34.3L282.82-34.3 303.93-6.4 303.27-5.6 303.27-33.15Q303.27-33.95 303.8-34.48 304.32-35 305.13-35ZM326.57 0L326.57 0Q325.67 0 325.07-0.6 324.47-1.2 324.47-2.05L324.47-2.05 324.47-32.95 328.72-32.95 328.72-2.05Q328.72-1.2 328.12-0.6 327.52 0 326.57 0ZM338.22-31.2L314.97-31.2Q314.12-31.2 313.55-31.73 312.97-32.25 312.97-33.1L312.97-33.1Q312.97-33.95 313.55-34.48 314.12-35 314.97-35L314.97-35 338.22-35Q339.07-35 339.67-34.48 340.27-33.95 340.27-33.1L340.27-33.1Q340.27-32.2 339.67-31.7 339.07-31.2 338.22-31.2L338.22-31.2Z" opacity="1" transform="matrix(1,0,0,1,0,0)" fill="#fec200" class="wordmark-text-0" data-fill-palette-color="primary" id="text-0"></path></svg></g></svg></g></svg></g></svg></g><g></g></svg></g></svg></g></svg></g><g mask="url(#934ae23f-e603-43b7-b76d-8ba59468b152)"><g transform="matrix(2.4519754802451974, 0, 0, 2.4519754802451974, 103.4150722418995, 1)"><svg xmlns="http://www.w3.org/2000/svg" xmlns:xlink="http://www.w3.org/1999/xlink" version="1.1" x="0" y="0" viewBox="10.800000000000006 0.09200000000000097 76.95421795055309 100.001" enable-background="new 0 0 100 100" xml:space="preserve" width="76.95421795055309" height="100.001" class="icon-none" data-fill-palette-color="accent" id="none"><path fill="#fec200" d="M74.907 65.612l-0.03-6.117 0.237-0.312c1.37-1.82 2.63-3.707 3.746-5.599 3.204-5.422 5.532-11.278 6.916-17.408l0.352-1.557 0.896-3.163c1.554-9.862 0.617-20.073-2.709-29.522 0 0-0.361-1.022-0.649-1.842-0.855 0.143-1.923 0.319-1.923 0.319C71.86 2.062 62.467 6.17 54.58 12.295l-2.339 2.309-1.193 1.059c-4.698 4.174-8.706 9.039-11.908 14.462-1.177 1.991-2.268 4.115-3.237 6.315l-0.16 0.36-5.004 2.727c-6.113 3.328-11.154 8.256-14.635 14.148-1.861 3.151-3.278 6.577-4.173 10.185-0.735 2.968-1.114 6.025-1.124 9.093 0 0-0.004 1.011-0.007 1.822 1.101 0.273 3.66 0.906 5.042 1.248 0.286-1.331 0.773-3.595 0.773-3.595 0.45-1.816 1.156-3.525 2.079-5.089 2.318-3.926 6.017-6.937 10.534-8.428l1.545-0.511-0.02 1.629-0.008 1.468 0.022 1.807-0.753 0.29c-3.111 1.199-5.786 3.24-7.733 5.905 0 0-0.84 1.148-1.514 2.066L50.913 89.37c0.479-1.031 1.08-2.318 1.08-2.318 1.322-2.847 1.848-5.998 1.511-9.114l-0.08-0.777 2.011-1.076 1.467-0.822 1.422-0.717 0.308 1.57c0.927 4.719 0.087 9.465-2.271 13.457-0.941 1.593-2.122 3.065-3.529 4.367 0 0-1.655 1.438-2.647 2.3 0.686 0.781 1.542 1.755 1.542 1.755s1.224 1.327 1.938 2.098c0.708-0.395 1.594-0.886 1.594-0.886 2.671-1.483 5.168-3.29 7.419-5.373 2.727-2.523 5.042-5.417 6.903-8.568C73.062 79.37 74.943 72.576 74.907 65.612zM15.742 65.494c-0.004 0.013-0.011 0.025-0.017 0.035-0.004 0.008-0.012 0.017-0.018 0.025-0.002 0.003-0.002 0.003-0.002 0.003-0.317 0.538-0.572 1.124-0.841 1.695 0.143-0.873 0.269-1.753 0.481-2.613 0.812-3.261 2.085-6.354 3.762-9.203 0.44-0.749 0.917-1.478 1.415-2.187 0.035-0.048 0.069-0.095 0.104-0.143 1.539-2.16 3.332-4.134 5.331-5.895 1.254-1.102 6.268-4.415 7.671-5.342-0.807 2.796-2.741 11.66-2.834 12.63C25.727 56.315 18.394 61.008 15.742 65.494zM60.959 12.158c6.184-3.963 13.1-6.73 20.351-8.078 2.097 6.32 3.034 12.965 2.846 19.587-0.053 1.811-0.178 3.623-0.401 5.424-2.733-1.615-22.785-13.46-25.524-15.076C59.121 13.367 60.033 12.75 60.959 12.158zM49.31 84.296c-2.115-1.251-21.208-12.526-23.325-13.777 0.166-0.181 0.336-0.357 0.511-0.531 0.041-0.04 0.082-0.082 0.121-0.121 0.208-0.199 0.418-0.393 0.638-0.583 1.219-1.055 2.613-1.896 4.154-2.475l18.535 10.949c0.251 1.713 0.173 3.423-0.21 5.076C49.62 83.326 49.479 83.815 49.31 84.296zM51.252 74.863c-1.113-0.657-16.195-9.565-17.308-10.223-0.245-10.996 3.036-23.996 8.212-32.775 0.693-1.172 1.429-2.313 2.204-3.428 0.669-0.967 1.373-1.904 2.1-2.823 0.198-0.249 0.392-0.503 0.593-0.754 0.049-0.06 0.104-0.12 0.156-0.181 1.767-2.14 6.013-6.602 8.729-8.357l27.163 16.043c-0.637 2.701-1.627 8.025-3.367 11.525-0.036 0.07-0.058 0.15-0.083 0.224-0.121 0.299-0.25 0.591-0.373 0.884-0.456 1.08-0.937 2.149-1.459 3.202-0.6 1.207-1.24 2.396-1.928 3.565C70.698 60.549 62.096 70.418 51.252 74.863zM65.424 85.298c-0.115 0.167-0.231 0.335-0.351 0.5-0.322 0.456-0.654 0.9-0.999 1.338-0.229 0.293-0.465 0.582-0.704 0.867-0.315 0.378-0.634 0.753-0.967 1.115-0.147 0.169-0.301 0.334-0.453 0.495-0.519 0.55-1.05 1.088-1.607 1.603-0.649 0.604-1.358 1.135-2.053 1.687 0.37-0.516 0.757-1.02 1.075-1.56 0.01-0.013 0.016-0.028 0.024-0.044 0.003-0.006 0.009-0.013 0.011-0.018 0.027-0.045 0.051-0.097 0.078-0.145 0.248-0.428 0.478-0.861 0.693-1.306 0.124-0.248 0.236-0.5 0.35-0.755 0.104-0.233 0.202-0.466 0.296-0.701 0.135-0.326 0.263-0.656 0.379-0.988 0.016-0.036 0.024-0.072 0.036-0.108 1.209-3.504 0.87-10.015 0.259-13.823 3.268-2.241 7.646-6.509 10.447-9.305-0.091 1.136-0.947 6.66-1.139 7.776-0.524 2.988-1.419 5.884-2.679 8.616-0.084 0.184-0.171 0.364-0.258 0.544-0.144 0.297-0.289 0.591-0.439 0.883-0.231 0.438-0.467 0.871-0.717 1.299-0.034 0.058-0.064 0.119-0.098 0.179C66.234 84.075 65.834 84.69 65.424 85.298zM67.765 11.765c-1.045-0.617-2.4-0.269-3.02 0.78-0.618 1.047-0.269 2.4 0.778 3.02s2.401 0.271 3.021-0.776C69.162 13.739 68.813 12.383 67.765 11.765zM66.112 14.564c-0.495-0.292-0.662-0.934-0.369-1.43 0.295-0.498 0.936-0.661 1.431-0.368 0.497 0.293 0.666 0.934 0.372 1.432C67.251 14.695 66.61 14.858 66.112 14.564zM80.971 19.564c-1.05-0.619-2.403-0.271-3.022 0.778-0.619 1.047-0.271 2.4 0.779 3.021 1.047 0.618 2.402 0.271 3.02-0.776C82.367 21.539 82.018 20.184 80.971 19.564zM79.316 22.365c-0.496-0.295-0.661-0.936-0.368-1.432 0.293-0.499 0.934-0.662 1.431-0.367 0.497 0.291 0.663 0.932 0.37 1.43C80.454 22.492 79.813 22.658 79.316 22.365zM74.622 15.814c-1.047-0.619-2.403-0.27-3.023 0.778-0.618 1.047-0.269 2.4 0.779 3.021 1.046 0.617 2.402 0.271 3.021-0.777C76.018 17.788 75.669 16.433 74.622 15.814zM72.968 18.614c-0.496-0.293-0.662-0.936-0.369-1.431 0.295-0.498 0.936-0.662 1.431-0.368 0.496 0.293 0.665 0.934 0.369 1.432C74.105 18.744 73.463 18.906 72.968 18.614zM64.952 31.776c-3.85-2.274-8.833-0.992-11.106 2.856-2.272 3.848-0.991 8.833 2.859 11.105 3.85 2.274 8.833 0.99 11.106-2.857S68.801 34.05 64.952 31.776zM57.296 44.738c-3.298-1.949-4.397-6.217-2.45-9.515 1.949-3.299 6.218-4.396 9.516-2.447 3.299 1.947 4.397 6.215 2.449 9.515C64.863 45.589 60.596 46.687 57.296 44.738z" data-fill-palette-color="accent"></path></svg></g></g></svg></g><defs></defs></svg><rect width="395.52" height="247.2" fill="none" stroke="none" visibility="hidden"></rect></g></svg></g></svg>